{"accessors" : [{"bufferView" : 0, "byteOffset" : 0, "componentType" : 5123, "count" : 5478, "type" : "SCALAR", "max" : [5477], "min" : [0]}, {"bufferView" : 1, "byteOffset" : 0, "componentType" : 5126, "count" : 5478, "type" : "VEC3", "max" : [175264.234375, 175268.234375, 175272.234375], "min" : [0.22964400053024292, 4.229643821716309, 8.229643821716309]}, {"bufferView" : 1, "byteOffset" : 12, "componentType" : 5126, "count" : 5478, "type" : "VEC2", "max" : [175276.234375, 175280.234375], "min" : [12.229643821716309, 16.229644775390625]}, {"bufferView" : 1, "byteOffset" : 20, "componentType" : 5126, "count" : 5478, "type" : "VEC3", "max" : [175284.234375, 175288.234375, 175292.234375], "min" : [20.229644775390625, 24.229644775390625, 28.229644775390625]}, {"bufferView" : 0, "byteOffset" : 10956, "componentType" : 5123, "count" : 28554, "type" : "SCALAR", "max" : [28553], "min" : [0]}, {"bufferView" : 2, "byteOffset" : 0, "componentType" : 5126, "count" : 28554, "type" : "VEC3", "max" : [913696, 913700, 913704], "min" : [-0.00917499978095293, 3.9908249378204346, 7.990825176239014]}, {"bufferView" : 2, "byteOffset" : 12, "componentType" : 5126, "count" : 28554, "type" : "VEC2", "max" : [913708, 913712], "min" : [11.990824699401855, 15.990824699401855]}, {"bufferView" : 2, "byteOffset" : 20, "componentType" : 5126, "count" : 28554, "type" : "VEC3", "max" : [913716, 913720, 913724], "min" : [19.990825653076172, 23.990825653076172, 27.990825653076172]}], "asset" : {"generator" : "Aspose.3D 20.8", "version" : "2.0"}, "buffers" : [{"uri" : "buffer.bin", "byteLength" : 1157100}], "bufferViews" : [{"buffer" : 0, "byteOffset" : 0, "byteLength" : 68064, "target" : 34963}, {"buffer" : 0, "byteOffset" : 68068, "byteLength" : 175296, "byteStride" : 32, "target" : 34962}, {"buffer" : 0, "byteOffset" : 243368, "byteLength" : 913728, "byteStride" : 32, "target" : 34962}], "meshes" : [{"primitives" : [{"attributes" : {"POSITION" : 1, "TEXCOORD_0" : 2, "NORMAL" : 3}, "indices" : 0, "mode" : 4}]}, {"primitives" : [{"attributes" : {"POSITION" : 5, "TEXCOORD_0" : 6, "NORMAL" : 7}, "indices" : 4, "mode" : 4}]}], "nodes" : [{"mesh" : 0, "name" : "Banana_Face"}, {"mesh" : 1, "name" : "Banana.001_Banana"}], "scene" : 0, "scenes" : [{"nodes" : [0, 1]}]}