<svg xmlns="http://www.w3.org/2000/svg" xmlns:xlink="http://www.w3.org/1999/xlink" id="Layer_1" x="0" y="0" version="1.1" viewBox="0 0 642.46 833.57" xml:space="preserve" style="enable-background:new 0 0 642.46 833.57"><style type="text/css">.st0{fill:#d1c3dc}.st0,.st1,.st2{stroke:#000;stroke-width:4;stroke-miterlimit:10}.st1{fill:none}.st2{fill:#e3ca83}</style><g><path d="M194.01,826.04c0,0-10.68-18.93-8.87-28.01c1.82-9.08,5.63-41.77,4.33-46.61c-1.3-4.84,3.72-29.66,4.54-35.11 c0.82-5.45,5.66-20.58,4.45-32.08c-1.21-11.5,2.42-15.13,9.08-47.82c6.66-32.69,6.05-48.43,6.05-48.43s12.11-11.5,15.74-26.03 s12.11-37.53,19.37-42.37c7.26-4.84-8.47-12.11-9.08-22.4s10.99-29.06,10.99-29.06s5.96-3.63,4.14-9.08 c-1.82-5.45-1.13-15.74,0.34-15.74s-3.98-3.03-3.98-7.26c0-4.24-2.42-19.37-2.42-19.37s-4.84-17.55-6.66-20.58 c-1.82-3.03-2.42-4.24-3.63-16.34c-1.21-12.11-3.03-20.58-3.03-20.58s-9.69-6.05-12.71-11.5s-9.69-23-9.69-24.82 s2.42,7.87-13.32,9.08s-15.74,1.21-15.74,1.21l-19.37-10.52h-55.09c0,0-27.24,6.28-40.56-16.72s2.42-13.92-13.32-23 s-6.05-50.85-6.05-50.85s11.5-16.95,13.32-23.61c1.82-6.66,27.24-18.77,27.24-18.77h19.37l15.74,4.24l6.66,6.66l3.63,9.69 l10.9-12.11c0,0,15.13-5.45,15.13-8.47c0-3.03,12.71,0,12.71,0s25.42-29.66,38.14-32.69c12.71-3.03,36.32-15.74,60.53-7.87 s27.85,9.08,27.85,9.08l11.5-4.84c0,0-2.42-13.92,4.24-22.4c0,0-5.99-7.99,0-12.36c5.99-4.38-4.65-7.4,0-22.21 s-3.91-2.36,1.88-18.51s1.42-7.4,3.77-7.74c2.36-0.34,0.34-4.38,0-7.4s5.05-20.19,25.58-29.95s25.58-11.78,39.38-10.1 c13.8,1.68,23.89,2.69,35.34,20.87s16.49,26.59,13.13,45.43c-3.37,18.85,8.41,37.02,8.41,37.02s21.2,28.27,35.34,33.32 c14.14,5.05,25.91,6.39,39.04,18.51c13.13,12.12,20.87,23.22,24.23,28.61s32.65,24.57,32.65,24.57s14.47,9.42,19.86,29.62 c5.38,20.19,7.4,17.16,6.06,25.24c-1.35,8.08,8.08,17.5,8.08,17.5s16.15,10.1,18.51,30.96s2.36,20.87,2.36,20.87 s-1.01,31.97,4.71,44.42c0,0,7.07,24.23,5.38,30.96c-1.68,6.73-9.76,22.89-17.5,34.33c-7.74,11.44-19.18,32.31-19.18,32.31 s-5.05,7.07-14.47,14.14c-9.42,7.07-21.54,26.25-21.54,26.25s-3.7,6.39-2.02,12.79c1.68,6.39,0.67,18.17-1.68,20.53 s-5.72,13.13-5.72,13.13s-7.07,12.79-11.44,17.5s-7.4,6.06-11.44,0.67c-4.04-5.38,0.34-18.85,0.34-18.85s-5.72,24.57-14.47,19.86 c-8.75-4.71-11.78-7.07-5.05-25.58c0,0-5.05,28.94-18.51,15.14c0,0-22.55-33.99-17.16-48.8c5.38-14.81,20.53-23.56,20.53-23.56 s9.09,3.7,11.44-10.1c0,0,8.75-4.04,9.76-21.54s-1.35-32.98,4.38-43.08s15.14-23.22,13.8-24.57c-1.35-1.35-5.05-0.34-9.09-4.71 c-4.04-4.38-8.41-3.37-8.41-3.37s-4.71,11.44-10.77,17.84c-6.06,6.39-14.81,23.89-14.81,23.89s-1.01,10.43-8.41,17.5 c-7.4,7.07-8.75,10.77-8.75,10.77s0.67,20.87-5.72,26.59c-6.39,5.72-7.74,10.43-7.74,10.43s10.59,9.77,11.78,19.52 c1.19,9.74,17.5,56.2,17.5,56.2s8.08,19.18,6.73,37.36s0,21.88-6.06,33.65c-4.16,8.09-8,14.9-11.74,19.8 c-1.71,2.24-3.4,4.07-5.09,5.44c-5.38,4.38-6.39,6.39-6.39,6.39s11.78-10.77,10.77-15.82c-1.01-5.05,6.73,16.15,3.03,36.01 c-3.7,19.86-1.01,52.17-1.01,52.17s2.69,28.94-2.02,44.09c-4.71,15.14-3.7,16.67-3.7,16.67h-286.4L194.01,826.04z" class="st0"/><path d="M131.03,282.97c17.5,2.21,34.4-6.88,48.73-17.17c10.88-7.82,21.8-17.64,24.14-30.82" class="st1"/><path d="M213.28,279.22c22.09,4.09,45.42,1.21,65.84-8.14c12.49-5.71,24.59-14.71,28.74-27.8" class="st1"/><path d="M336.7,329.26c8.13,0.58,16.34,1.16,24.4-0.07s16.07-4.41,21.66-10.34c3.52-3.74,6.15-8.59,10.74-10.9 c3.08-1.55,6.63-1.74,10-2.48c9.47-2.09,17.3-8.53,24.73-14.76" class="st1"/><path d="M285.66,302.26c7.7-2.64,15.52-5.29,23.65-5.75c9.38-0.53,18.75,1.91,27.35,5.7 c8.6,3.79,16.55,8.89,24.45,13.98" class="st1"/><path d="M182.13,322.69c3.06,0.48,6.21-0.48,8.87-2.05c2.67-1.58,4.93-3.74,7.16-5.88c4.42-4.24,9.11-9,9.79-15.08" class="st1"/><path d="M170.76,196.46c-5.49,14.99-5.93,31.78-1.24,47.03" class="st1"/><path d="M69.1,240.96c7.91,6.15,18.25,9.1,28.22,8.05c2.01-0.21,4.05-0.59,5.82-1.59c1.77-0.99,3.23-2.68,3.53-4.68" class="st1"/><path d="M354.47,161.99c10.44-2.19,21.95,2.08,28.45,10.53c6.5,8.45,7.66,20.68,2.86,30.2" class="st1"/><path d="M553.9,298.32c-1.37,10.32-6.2,20.16-13.53,27.55s-17.13,12.3-27.44,13.75" class="st1"/><path d="M495.01,327.2c0.98,7.22-0.79,14.59-3.81,21.22c-3.01,6.63-7.23,12.62-11.43,18.58 c-3.06,4.34-6.2,8.77-10.52,11.85c-4.32,3.08-10.12,4.63-15.03,2.6" class="st1"/><path d="M546.88,331.27c-1.24,28.73-10.73,57.07-27.03,80.76" class="st1"/><path d="M612.12,346.02c-0.03,9.22-0.25,18.5-2.2,27.51c-1.95,9.01-5.75,17.8-12.12,24.46 c-6.37,6.66-15.53,10.96-24.72,10.21" class="st1"/><path d="M489.76,263.26c8.75,2.01,18.29-1.45,24.5-7.93c6.22-6.48,9.26-15.62,9.26-24.6 c0-13.05-6.37-25.96-16.73-33.89" class="st1"/><path d="M279.78,460.53c7.2-1.13,14.54,0.17,21.82,0.44c7.29,0.28,15.14-0.7,20.62-5.51" class="st1"/><path d="M343.7,437.95c9.37-1.03,18.97,0.74,28.22-1.07c3.33-0.65,6.57-1.77,9.6-3.3c4.66-2.36,9.02-6.05,10.42-11.08" class="st1"/><path d="M380.22,409.99c-0.29-2,0.6-4.04,1.95-5.54c1.36-1.5,3.14-2.54,4.95-3.44c6.08-3.04,12.78-4.86,19.56-5.3" class="st1"/><path d="M359.53,388.37c10.1,0.57,19.59-4.69,27.71-10.72c3.23-2.4,6.42-5.02,8.53-8.45 c2.12-3.43,3.02-7.83,1.45-11.54" class="st1"/><path d="M436.41,486.69c8.5-10.83,21.01-18.43,34.53-21" class="st1"/><path d="M615.56,405.94c4.35,10.62,2.5,22.97-2.36,33.37c-4.86,10.4-12.46,19.23-19.96,27.91" class="st1"/><path d="M533.03,570.49c1.47-2.94,0.1-6.47-1.45-9.37s-3.35-6.05-2.68-9.27c0.52-2.53,2.53-4.54,4.83-5.72 c2.3-1.17,4.88-1.64,7.42-2.09c6.56-1.16,13.13-2.32,19.69-3.48" class="st1"/><path d="M521.68,529.04c2.44,5.15,1.88,11.36-0.43,16.57c-2.31,5.21-6.21,9.55-10.41,13.41 c-4.47,4.12-9.74,8.52-10.12,14.59" class="st1"/><path d="M385.1,546.33l10.43,54.18c0,0,9.64,63.62-10.43,85.48c-8.05,8.77-23.26,12.78-35.74,14.61 c-11.36,1.67-22.95,0.29-33.6-4.02l-11.2-4.52c-10.39-6.54-21.24-13.58-26.92-24.47c-2.88-5.52-4.23-11.7-5.55-17.79 c-2.99-13.82-6-27.75-6.34-41.89" class="st1"/><path d="M392.84,679.77c0,0,3.41,8.1,9.08,11.18c17.01,9.22,54.36,19.56,81.12,1.12 c35.67-24.58,8.83-107.74,8.83-107.74" class="st1"/><path d="M367.93,699.79c0,0,10.43,47.12,6.39,68.32c-4.04,21.2-0.67,61.62-6.39,63.45" class="st1"/><path d="M380.38,831.57c0,0-9.42-47.3-6.06-63.45c3.37-16.15-5.11-71.84-0.73-74.15" class="st1"/><path d="M362.79,65.85c3.58,0.79,5.91,4.51,6.27,8.16s-0.79,7.26-1.94,10.75c-1.14,3.45-2.28,6.93-4.07,10.1 c-1.78,3.17-4.27,6.04-7.51,7.69" class="st1"/><path d="M359.47,78.86c0.05-1.78,0.1-3.56,0.15-5.34c0.02-0.56,0.01-1.19-0.37-1.6c-0.72-0.77-2.14-0.03-2.37,1 s0.31,2.06,0.83,2.97" class="st1"/><path d="M355.07,88.75c-1.11,0.84-2.91,0.22-3.49-1.05c-0.58-1.27-0.06-2.86,1-3.76s2.54-1.2,3.92-1.07" class="st1"/><path d="M351.6,97.86c4.87-5.11,8.17-11.7,9.33-18.66c0.52-3.09,0.43-6.72-1.94-8.77c-0.9-0.77-2.19-1.23-3.28-0.75 c-1.08,0.47-1.57,2.13-0.67,2.9" class="st1"/><path d="M46.6,277.42c0,0-11.85-8.08-14.54-21.2c-2.69-13.13,4.71-16.15,0-22.55s-6.06-12.26-4.04-13.7 c2.02-1.44,0.34-1.78-3.03-4.47c-3.37-2.69-1.68-16.83-5.72-21.2c-4.04-4.38-7.07-12.79-6.73-14.14c0.34-1.35-1.01-5.72-4.71-6.06 c-3.7-0.34-6.39-13.46-5.72-20.87c0.67-7.4,3.37-25.58,2.36-29.62c-1.01-4.04,3.37-15.14,4.38-19.18 c1.01-4.04,6.73-8.74,5.38-15.31c-1.35-6.57,1.35-17.54,1.35-17.54l2.02-7.54c0,0-7.4,3.7-6.06-4.04s7.07-17.5,7.07-17.5 s4.68-13.46,5.71-15.82c1.03-2.36-4.39-1.35,0-9.09S39.46,2.13,39.46,2.13s6.73-1.35,10.77,4.71s4.04,6.06,4.04,6.06 s4.71,7.4,5.05,11.11c0.34,3.7-0.62-9.42,9.79-9.42s15.79,0.67,15.79,0.67s10.43,5.05,9.76,10.1c-0.67,5.05-3.7,15.48-3.7,15.48 l-5.72,8.41c0,0,10.83-7.07,9.45-1.68c0,0,12.42-6.73,15.79,6.39c3.37,13.13-9.42,21.27-9.42,21.27s12.12-3.43,15.82,5.32 c0,0,18.51,17.78,2.69,22.01s-17.16,2.55-17.16,2.55s4.71,7.74,0.34,10.1c-4.38,2.36-6.73,0-6.73,0s3.03,1.01,0,5.38 c-3.03,4.38-4.04,10.77-4.04,10.77l-0.67,5.05l3.03,0.34l-3.37,15.14c0,0,11.78,5.59,13.46,9.53s21.2,5.62,32.31,17.73 c11.11,12.12,13.96,17.3,13.96,17.3l-10.26,4.57c0,0,5.38-14.81-18.85-14.47s-26.59,3.1-26.59,3.1s-27.26,11.04-38.03,25.51 c-10.77,14.47-11.75,40.85-11.75,40.85L46.6,277.42z" class="st2"/><path d="M41.41,79.13c1.48-4.35,3.13-8.64,4.93-12.87c1.28-3.01,2.84-6.2,5.75-7.7c1.94-1,4.22-1.1,6.4-1.03 c5.18,0.17,10.79,1.4,14.06,5.43c3.23,3.99,3.32,9.63,2.73,14.73c-0.67,5.75-2,11.43-3.96,16.88" class="st2"/><path d="M39.18,89.03c0.81,5.92,5.26,10.83,10.49,13.73c5.22,2.9,11.19,4.1,17.05,5.27" class="st2"/><path d="M59.12,24.34c2.08,3.87,1.55,9.33-1.35,12.63c-0.13-2.56-2.49-4.39-4.73-5.65c-8.42-4.73-18.41-6.6-27.97-5.23" class="st2"/><path d="M84.2,49.85c-1.18,0.54-2.58,0.46-3.81,0.05c-1.24-0.41-2.34-1.13-3.43-1.85c-3.11-2.07-6.14-4.26-9.08-6.56 c-0.81-0.63-4.25-2.57-5.01-2.84c-1.89-0.68-3.49-2.22-4.16-4.12" class="st2"/><path d="M92.26,45.79c-4.9,0.97-8.07,8.2-7.98,13.2c0.09,5,2.75,9.61,5.95,13.45c1.22,1.47,2.59,2.9,4.34,3.66 c1.75,0.76,3.99,0.69,5.38-0.62" class="st2"/><path d="M40.85,79.68c9.02,7.36,19.42,13.38,30.83,15.68" class="st2"/><path d="M14.34,111.62c4.42-4.06,9.31-8.11,15.23-9.11c3.93-0.66,7.97,0.1,11.81,1.2c4.73,1.36,9.34,3.26,13.36,6.1 s7.43,6.65,9.32,11.19c0.94,2.26,1.5,4.74,1.24,7.17c-0.31,2.82-1.7,5.41-3.29,7.76c-5.41,7.99-13.61,14.14-22.92,16.68 c-7.7,2.1-16.75,1.43-22.53-4.07c-3.85-3.66-5.77-9-6.28-14.29c-0.52-5.29,0.23-10.62,0.97-15.88c0.35-2.45,0.77-5.07,2.49-6.85" class="st2"/><path d="M65.19,149.43c6.49,6.14,14.3,10.87,22.75,13.78c6.09,2.1,12.5,3.26,18.45,5.73c5.95,2.47,11.63,6.57,14,12.56" class="st2"/><path d="M57.92,160.97c3.55-0.67,7.38,0.34,10.15,2.65c2.78,2.31,4.46,5.89,4.48,9.5c0.01,1.89-0.44,3.85-1.63,5.33 c-1.95,2.43-5.35,3.03-8.43,3.47c-3.69,0.52-8,0.85-10.58-1.84c-1.15-1.2-1.74-2.82-2.29-4.39c-1.02-2.92-2-6.2-0.72-9.01 c1.44-3.15,5.12-4.47,8.43-5.48" class="st1"/><path d="M55.83,55.81c-2.16-6.34-0.85-13.75,3.35-18.97" class="st2"/><path d="M83.98,50.32c-2.51,0.31-4.89,1.51-6.64,3.33c-1.75,1.82-2.84,4.26-3.05,6.78" class="st2"/><path d="M97.67,77.32c-4.72,1.67-9.2,4.03-13.24,6.98c-1.16,0.85-2.31,1.76-3.14,2.93c-0.83,1.17-1.32,2.65-1.05,4.07" class="st2"/><path d="M15.64,63.87c4.2-2.03,8.12-4.63,11.63-7.7c2.03-1.78,3.97-3.77,5.06-6.25c1.09-2.47,1.21-5.51-0.28-7.77" class="st2"/><path d="M105.23,103.81c-2.58-3.44-5.29-7.31-4.96-11.6c0.22-2.8,1.72-5.31,3.25-7.66c2.13-3.26,4.39-6.43,6.79-9.49" class="st2"/><path d="M41.15,80.69c-0.71,3.02-1.42,6.05-2.13,9.07" class="st2"/><path d="M71.95,94.89c0.52,4.2-2.25,7.98-4.3,11.68c-3.45,6.2-5.14,13.36-4.83,20.45" class="st2"/><path d="M40.88,80.12c-1.06,4.92-5.13,9.05-10.03,10.18" class="st2"/></g></svg>